<svg width="1920" height="1080" viewBox="0 0 1920 1080" fill="none" xmlns="http://www.w3.org/2000/svg">
  <rect width="1920" height="1080" fill="#263E32"/>
  <path d="M1134 82C1375 43 1620 120 1769 281C1918 443 1970 689 1856 855C1742 1022 1462 1110 1194 1053C926 996 670 795 661 581C653 367 893 121 1134 82Z" fill="#E7C77E" fill-opacity=".28"/>
  <path d="M117 818C252 598 488 481 704 536C920 590 1117 816 1028 958C938 1100 562 1158 316 1068C70 978 -18 936 117 818Z" fill="#F1E1C2" fill-opacity=".22"/>
  <ellipse cx="1328" cy="729" rx="481" ry="118" fill="#17271F" fill-opacity=".34"/>
  <g filter="url(#shadow)">
    <rect x="1007" y="344" width="511" height="368" rx="54" fill="#F7F1E4"/>
    <rect x="1031" y="369" width="463" height="319" rx="38" fill="#E7D6B5"/>
    <rect x="1088" y="439" width="189" height="42" rx="21" fill="#315743"/>
    <rect x="1088" y="505" width="310" height="24" rx="12" fill="#8F6C48" fill-opacity=".45"/>
    <rect x="1088" y="552" width="260" height="24" rx="12" fill="#8F6C48" fill-opacity=".33"/>
    <rect x="1088" y="599" width="196" height="24" rx="12" fill="#8F6C48" fill-opacity=".28"/>
    <circle cx="1428" cy="463" r="55" fill="#CFA55A"/>
    <path d="M1428 431V495M1396 463H1460" stroke="#F9F3E7" stroke-width="16" stroke-linecap="round"/>
  </g>
  <g filter="url(#shadow)">
    <rect x="756" y="502" width="324" height="186" rx="42" fill="#F8F0DF"/>
    <rect x="792" y="545" width="92" height="99" rx="24" fill="#315743"/>
    <rect x="908" y="542" width="132" height="26" rx="13" fill="#CFA55A"/>
    <rect x="908" y="591" width="95" height="19" rx="9.5" fill="#8F6C48" fill-opacity=".4"/>
    <rect x="908" y="627" width="72" height="19" rx="9.5" fill="#8F6C48" fill-opacity=".3"/>
  </g>
  <g filter="url(#shadow)">
    <rect x="1338" y="579" width="206" height="292" rx="42" fill="#2F5944"/>
    <rect x="1375" y="642" width="132" height="26" rx="13" fill="#F5E7C8" fill-opacity=".92"/>
    <rect x="1375" y="695" width="92" height="18" rx="9" fill="#F5E7C8" fill-opacity=".48"/>
    <rect x="1375" y="729" width="112" height="18" rx="9" fill="#F5E7C8" fill-opacity=".36"/>
    <circle cx="1442" cy="803" r="34" fill="#CFA55A"/>
  </g>
  <g filter="url(#soft)">
    <path d="M1601 652C1642 637 1691 655 1716 692C1742 729 1743 783 1702 805C1661 827 1578 817 1558 776C1537 736 1560 667 1601 652Z" fill="#E0B767"/>
    <path d="M1598 748C1630 732 1666 732 1698 748" stroke="#F8F0DF" stroke-width="20" stroke-linecap="round"/>
  </g>
  <g filter="url(#soft)" opacity=".9">
    <rect x="1111" y="736" width="224" height="53" rx="26.5" fill="#F5E7C8"/>
    <rect x="1142" y="754" width="92" height="16" rx="8" fill="#315743" fill-opacity=".46"/>
    <rect x="1248" y="754" width="44" height="16" rx="8" fill="#CFA55A"/>
  </g>
  <g opacity=".75">
    <circle cx="1550" cy="263" r="10" fill="#F7E2AE"/>
    <circle cx="1685" cy="382" r="7" fill="#F7E2AE"/>
    <circle cx="902" cy="303" r="8" fill="#F7E2AE"/>
    <circle cx="1710" cy="616" r="6" fill="#F7E2AE"/>
    <circle cx="1204" cy="225" r="6" fill="#F7E2AE"/>
  </g>
  <defs>
    <filter id="shadow" x="680" y="286" width="916" height="655" filterUnits="userSpaceOnUse" color-interpolation-filters="sRGB">
      <feDropShadow dx="0" dy="28" stdDeviation="34" flood-color="#14221B" flood-opacity=".28"/>
    </filter>
    <filter id="soft" x="1500" y="613" width="265" height="236" filterUnits="userSpaceOnUse" color-interpolation-filters="sRGB">
      <feDropShadow dx="0" dy="18" stdDeviation="24" flood-color="#14221B" flood-opacity=".22"/>
    </filter>
  </defs>
</svg>
